<svg xmlns="http://www.w3.org/2000/svg" x="0" y="0" viewBox="0 0 48 48"><path fill="#3dd9eb" d="M5,40V8h38v32H5z"/><circle cx="38" cy="38" r="10" fill="#3ddab4"/><path fill="#00b3d7" d="M27,19v4v1.9h-6V19H27z"/><path fill="#00b3d7" d="M18,19v4v1.9h-6V19H18z"/><path fill="#00b3d7" d="M36,19v4v1.9h-6V19H36z"/><path fill="#00b3d7" d="M27,28v4V34h-6v-6H27z"/><path fill="#00b3d7" d="M18,28v4V34h-6v-6H18z"/><rect width="4" height="3" x="10" y="8" fill="#00b3d7"/><rect width="4" height="3" x="34" y="8" fill="#00b3d7"/><rect width="4" height="3" x="10" y="5" fill="#f5bc00"/><rect width="4" height="3" x="22" y="8" fill="#00b3d7"/><rect width="4" height="3" x="22" y="5" fill="#f5bc00"/><rect width="4" height="3" x="34" y="5" fill="#f5bc00"/><path fill="#00b569" d="M43,29.3c-1.5-0.9-3.2-1.3-5-1.3c-5.5,0-10,4.5-10,10c0,0.7,0.1,1.4,0.2,2H43V29.3z"/><path fill="#c1f5ea" d="M40,44h-4V32h4V44z"/><path fill="#c1f5ea" d="M32,40v-4h12v4H32z"/></svg>