<svg xmlns="http://www.w3.org/2000/svg" viewBox="0 0 30 30"><path fill="#b6c9d6" d="M15.5,10.8c-1.3,0-3.5-1.3-5.4-3.2c-2.4-2.4-3-5.3-2.4-5.9c0.1-0.1,0.5-0.3,1.1-0.3 c1.4,0,3.6,0.7,5.2,2.3c2.3,2.3,3.2,5.8,2.3,6.8C16.1,10.7,15.9,10.8,15.5,10.8z"/><path fill="#788b9c" d="M8.8,2L8.8,2c1.3,0,3.4,0.7,4.8,2.1c1,1,1.8,2.4,2.2,3.8c0.4,1.3,0.3,2.1,0.1,2.3 c-0.1,0.1-0.2,0.1-0.4,0.1c-1.2,0-3.3-1.3-5-3C8.3,5.1,7.7,2.6,8,2.1C8.1,2.1,8.3,2,8.8,2 M8.8,1C8.1,1,7.6,1.1,7.4,1.4 C6.4,2.3,7.4,5.6,9.8,8c1.8,1.8,4.2,3.3,5.7,3.3c0.5,0,0.9-0.1,1.1-0.4c1.2-1.2,0.1-5.1-2.3-7.5C12.7,1.8,10.3,1,8.8,1L8.8,1z"/><path fill="#fff" d="M12,11.5c-2.5,0-4.8-0.8-6.2-2.2c-2.8-2.8-3.8-6.6-3-7.4C3,1.6,3.5,1.5,4.2,1.5 c1.8,0,4.6,0.9,6.5,2.8c0.4,0.4,0.7,0.7,1.1,1.1c1.8,1.8,3.7,3.7,3.7,4.7c0,0.2-0.1,0.3-0.2,0.5C14.8,11.2,13.5,11.5,12,11.5z"/><path fill="#788b9c" d="M4.2,2L4.2,2c1.7,0,4.3,0.8,6.2,2.7c0.4,0.4,0.8,0.7,1.1,1.1c1.6,1.6,3.6,3.5,3.6,4.4 c0,0,0,0.1,0,0.1C14.7,10.6,13.6,11,12,11c-1.8,0-4.3-0.5-5.8-2.1C3.2,6,2.7,2.7,3.1,2.2C3.2,2.2,3.5,2,4.2,2 M4.2,1 C3.4,1,2.8,1.2,2.4,1.5c-1.2,1.2,0.1,5.2,3,8.2C7.1,11.3,9.7,12,12,12c1.7,0,3.1-0.4,3.8-1.1c1.4-1.4-1.7-4-4.7-7 C9,1.9,6.1,1,4.2,1L4.2,1z"/><path fill="#805f51" d="M11,21c-1.1,0.1-2,1.8-2,4s0.9,3.9,2,4V21z"/><path fill="#805f51" d="M18,22.2c-1.3,3.9-5.6,6.3-7.3,5.7C8.3,27,7,24.9,7,21c0-7,3.4-9,7-8C17,13.8,19.5,17.7,18,22.2z"/><path fill="#ffeea3" d="M14.2 25.7C12 24.8 9.9 23.4 8 21.5c0 .9.1 1.7.3 2.3 1.4 1.1 2.8 2.1 4.3 2.8C13.2 26.4 13.7 26.1 14.2 25.7zM10.4 19.1c-.7-.7-1.3-1.5-1.8-2.3-.2.6-.4 1.2-.5 1.9.4.5.8 1 1.2 1.4 1.9 1.9 4.2 3.2 6.5 3.9.3-.4.6-.9.8-1.3C14.5 22.1 12.3 20.9 10.4 19.1zM11 14c-.5.2-.9.4-1.3.8.5 1 1.2 2 2 2.9 1.6 1.6 3.6 2.6 5.6 2.9.1-.5.1-1 0-1.5-1.6-.3-3.2-1.1-4.6-2.4C12.1 15.8 11.5 14.9 11 14zM17.6 16.5c-1.1 0-2.3-.5-3.2-1.4-1.6-1.6-1.9-3.9-.6-5.2.5-.5 1.2-.8 2.1-.8 1.1 0 2.3.5 3.2 1.4 1.6 1.6 1.9 3.9.6 5.2C19.2 16.2 18.5 16.5 17.6 16.5z"/><path fill="#805f51" d="M15.9,9.6L15.9,9.6c1,0,2,0.5,2.8,1.3c1.4,1.4,1.7,3.4,0.6,4.5c-0.5,0.5-1.2,0.7-1.7,0.7 c-1,0-2-0.5-2.8-1.3c-0.7-0.7-1.1-1.6-1.2-2.5c-0.1-0.8,0.1-1.5,0.6-2C14.8,9.7,15.5,9.6,15.9,9.6 M15.9,8.6 c-0.9,0-1.8,0.3-2.4,0.9c-1.5,1.5-1.2,4.1,0.6,5.9c1,1,2.3,1.5,3.5,1.5c0.9,0,1.8-0.3,2.4-0.9c1.5-1.5,1.2-4.1-0.6-5.9 C18.4,9.1,17.1,8.6,15.9,8.6L15.9,8.6z"/><path fill="#36404d" d="M20 5.5c-.2 0-.4-.2-.5-.4L19 2.3l.2-.2c.1 0 1.4-1.1 3.3-1.1C22.8 1 23 1.2 23 1.5S22.8 2 22.5 2c-1.2 0-2 .5-2.4.7l.4 2.2C20.5 5.2 20.4 5.4 20 5.5 20.1 5.5 20 5.5 20 5.5zM22.7 7.5c-.2 0-.4-.2-.5-.4L21.7 4 22 3.8c.1 0 1.6-.8 3.5-.8C25.8 3 26 3.2 26 3.5S25.8 4 25.5 4c-1.2 0-2.2.4-2.7.6l.4 2.4C23.3 7.2 23.1 7.5 22.7 7.5 22.8 7.5 22.8 7.5 22.7 7.5z"/><g><path fill="#ffeea3" d="M22,11.5c-2.1,0-3.5-1.4-3.5-3.5s1.4-3.5,3.5-3.5c2.9,0,4.5,3.6,4.5,5.5 C26.5,11.4,24.3,11.5,22,11.5L22,11.5z"/><path fill="#805f51" d="M22,5c2.5,0,4,3.2,4,5c0,0.2,0,0.5-1,0.8C24.1,11,23,11,22,11c-2.1,0-3-1.5-3-3S19.9,5,22,5 M22,4 c-2.5,0-4,1.8-4,4s1.5,4,4,4c2,0,5,0,5-2C27,7.8,25.2,4,22,4L22,4z"/></g><g><path fill="#36404d" d="M23.1 4.6000000000000005A1.9 2.3 0 1 0 23.1 9.2A1.9 2.3 0 1 0 23.1 4.6000000000000005Z" transform="rotate(-45.001 23.081 6.918)"/></g></svg>