<svg xmlns="http://www.w3.org/2000/svg" viewBox="0 0 80 80"><path fill="#fff" d="M2.5,71.5V16.6h75V66c0,3-2.5,5.5-5.5,5.5H2.5z"/><path fill="#788b9c" d="M77,17.1V66c0,2.8-2.2,5-5,5H3V17.1H77 M78,16.1H2V72h70c3.3,0,6-2.7,6-6V16.1L78,16.1z"/><path fill="#c8d1db" d="M2.5,17.5V13c0-2.5,2-4.5,4.5-4.5h66c2.5,0,4.5,2,4.5,4.5v4.5H2.5z"/><path fill="#66798f" d="M73,9c2.2,0,4,1.8,4,4v4H3v-4c0-2.2,1.8-4,4-4H73 M73,8H7c-2.8,0-5,2.2-5,5v5h76v-5 C78,10.2,75.8,8,73,8L73,8z"/><path fill="#788b9c" d="M14 33H20V34H14zM26 33H66V34H26zM14 41H20V42H14zM26 41H66V42H26zM14 49H20V50H14zM14 57H20V58H14zM46.8 49H26v1h20C46.3 49.7 46.5 49.3 46.8 49zM42.7 57H26v1h16.4C42.5 57.7 42.6 57.3 42.7 57z"/><path fill="#d6e3ed" d="M53 70L53 71 44.5 71 45.1 72 54 72 54 70zM77 50.2L77 53.9 76 54.9 76 58.8 78 56.9 78 51.7z"/><g><path fill="#f78f8f" d="M62,79.5c-9.6,0-17.5-7.9-17.5-17.5S52.4,44.5,62,44.5S79.5,52.4,79.5,62S71.6,79.5,62,79.5z"/><path fill="#c74343" d="M62,45c9.4,0,17,7.6,17,17s-7.6,17-17,17s-17-7.6-17-17S52.6,45,62,45 M62,44c-9.9,0-18,8.1-18,18 s8.1,18,18,18s18-8.1,18-18S71.9,44,62,44L62,44z"/></g><path fill="#fff" d="M52.1 60H71.9V64H52.1z" transform="rotate(-45.001 62 62.001)"/><path fill="#fff" d="M60 52.1H64V71.9H60z" transform="rotate(-45.001 62 62.001)"/></svg>