<svg xmlns="http://www.w3.org/2000/svg" viewBox="0 0 64 64"><linearGradient id="xGx4oSjgnGTjf1dYgKNaxa" x1="48" x2="48" y1="12" y2="19.75" gradientUnits="userSpaceOnUse" spreadMethod="reflect"><stop offset="0" stop-color="#6dc7ff"/><stop offset="1" stop-color="#e6abff"/></linearGradient><path fill="url(#xGx4oSjgnGTjf1dYgKNaxa)" d="M54,18c0,0.552-0.448,1-1,1H43c-0.552,0-1-0.448-1-1v-4c0-0.552,0.448-1,1-1h10 c0.552,0,1,0.448,1,1V18z"/><linearGradient id="xGx4oSjgnGTjf1dYgKNaxb" x1="48" x2="48" y1="27.5" y2="37.013" gradientUnits="userSpaceOnUse" spreadMethod="reflect"><stop offset="0" stop-color="#6dc7ff"/><stop offset="1" stop-color="#e6abff"/></linearGradient><path fill="url(#xGx4oSjgnGTjf1dYgKNaxb)" d="M54,34c0,0.552-0.448,1-1,1H43c-0.552,0-1-0.448-1-1v-4c0-0.552,0.448-1,1-1h10 c0.552,0,1,0.448,1,1V34z"/><linearGradient id="xGx4oSjgnGTjf1dYgKNaxc" x1="48" x2="48" y1="44.5" y2="51.819" gradientUnits="userSpaceOnUse" spreadMethod="reflect"><stop offset="0" stop-color="#6dc7ff"/><stop offset="1" stop-color="#e6abff"/></linearGradient><path fill="url(#xGx4oSjgnGTjf1dYgKNaxc)" d="M54,50c0,0.552-0.448,1-1,1H43c-0.552,0-1-0.448-1-1v-4c0-0.552,0.448-1,1-1h10 c0.552,0,1,0.448,1,1V50z"/><linearGradient id="xGx4oSjgnGTjf1dYgKNaxd" x1="13" x2="13" y1="9" y2="56.316" gradientUnits="userSpaceOnUse" spreadMethod="reflect"><stop offset="0" stop-color="#1a6dff"/><stop offset="1" stop-color="#c822ff"/></linearGradient><path fill="url(#xGx4oSjgnGTjf1dYgKNaxd)" d="M18,20c0,0.552-0.448,1-1,1H9c-0.552,0-1-0.448-1-1v-8c0-0.552,0.448-1,1-1h6V9H9 c-1.654,0-3,1.346-3,3v8c0,1.654,1.346,3,3,3h8c1.654,0,3-1.346,3-3v-4h-2V20z"/><linearGradient id="xGx4oSjgnGTjf1dYgKNaxe" x1="40" x2="40" y1="9" y2="56.316" gradientUnits="userSpaceOnUse" spreadMethod="reflect"><stop offset="0" stop-color="#1a6dff"/><stop offset="1" stop-color="#c822ff"/></linearGradient><path fill="url(#xGx4oSjgnGTjf1dYgKNaxe)" d="M55,9H25c-1.654,0-3,1.346-3,3v8c0,1.654,1.346,3,3,3h30c1.654,0,3-1.346,3-3v-8 C58,10.346,56.654,9,55,9z M56,20c0,0.552-0.448,1-1,1H25c-0.552,0-1-0.448-1-1v-8c0-0.552,0.448-1,1-1h30c0.552,0,1,0.448,1,1V20z"/><linearGradient id="xGx4oSjgnGTjf1dYgKNaxf" x1="40" x2="40" y1="9" y2="56.316" gradientUnits="userSpaceOnUse" spreadMethod="reflect"><stop offset="0" stop-color="#1a6dff"/><stop offset="1" stop-color="#c822ff"/></linearGradient><path fill="url(#xGx4oSjgnGTjf1dYgKNaxf)" d="M55,25H25c-1.654,0-3,1.346-3,3v8c0,1.654,1.346,3,3,3h30c1.654,0,3-1.346,3-3v-8 C58,26.346,56.654,25,55,25z M56,36c0,0.552-0.448,1-1,1H25c-0.552,0-1-0.448-1-1v-8c0-0.552,0.448-1,1-1h30c0.552,0,1,0.448,1,1V36 z"/><linearGradient id="xGx4oSjgnGTjf1dYgKNaxg" x1="14" x2="14" y1="9" y2="56.316" gradientUnits="userSpaceOnUse" spreadMethod="reflect"><stop offset="0" stop-color="#1a6dff"/><stop offset="1" stop-color="#c822ff"/></linearGradient><path fill="url(#xGx4oSjgnGTjf1dYgKNaxg)" d="M10.707 15.293L9.293 16.707 12.5 19.914 18.707 13.707 17.293 12.293 12.5 17.086z"/><linearGradient id="xGx4oSjgnGTjf1dYgKNaxh" x1="13" x2="13" y1="9" y2="56.316" gradientUnits="userSpaceOnUse" spreadMethod="reflect"><stop offset="0" stop-color="#1a6dff"/><stop offset="1" stop-color="#c822ff"/></linearGradient><path fill="url(#xGx4oSjgnGTjf1dYgKNaxh)" d="M18,36c0,0.552-0.448,1-1,1H9c-0.552,0-1-0.448-1-1v-8c0-0.552,0.448-1,1-1h6v-2H9 c-1.654,0-3,1.346-3,3v8c0,1.654,1.346,3,3,3h8c1.654,0,3-1.346,3-3v-4h-2V36z"/><linearGradient id="xGx4oSjgnGTjf1dYgKNaxi" x1="14" x2="14" y1="9" y2="56.316" gradientUnits="userSpaceOnUse" spreadMethod="reflect"><stop offset="0" stop-color="#1a6dff"/><stop offset="1" stop-color="#c822ff"/></linearGradient><path fill="url(#xGx4oSjgnGTjf1dYgKNaxi)" d="M10.707 31.293L9.293 32.707 12.5 35.914 18.707 29.707 17.293 28.293 12.5 33.086z"/><linearGradient id="xGx4oSjgnGTjf1dYgKNaxj" x1="33" x2="33" y1="9" y2="56.316" gradientUnits="userSpaceOnUse" spreadMethod="reflect"><stop offset="0" stop-color="#1a6dff"/><stop offset="1" stop-color="#c822ff"/></linearGradient><path fill="url(#xGx4oSjgnGTjf1dYgKNaxj)" d="M26 13H40V15H26z"/><linearGradient id="xGx4oSjgnGTjf1dYgKNaxk" x1="31" x2="31" y1="9" y2="56.316" gradientUnits="userSpaceOnUse" spreadMethod="reflect"><stop offset="0" stop-color="#1a6dff"/><stop offset="1" stop-color="#c822ff"/></linearGradient><path fill="url(#xGx4oSjgnGTjf1dYgKNaxk)" d="M26 17H36V19H26z"/><linearGradient id="xGx4oSjgnGTjf1dYgKNaxl" x1="33" x2="33" y1="9" y2="56.316" gradientUnits="userSpaceOnUse" spreadMethod="reflect"><stop offset="0" stop-color="#1a6dff"/><stop offset="1" stop-color="#c822ff"/></linearGradient><path fill="url(#xGx4oSjgnGTjf1dYgKNaxl)" d="M26 29H40V31H26z"/><linearGradient id="xGx4oSjgnGTjf1dYgKNaxm" x1="31" x2="31" y1="9" y2="56.316" gradientUnits="userSpaceOnUse" spreadMethod="reflect"><stop offset="0" stop-color="#1a6dff"/><stop offset="1" stop-color="#c822ff"/></linearGradient><path fill="url(#xGx4oSjgnGTjf1dYgKNaxm)" d="M26 33H36V35H26z"/><linearGradient id="xGx4oSjgnGTjf1dYgKNaxn" x1="40" x2="40" y1="9" y2="56.316" gradientUnits="userSpaceOnUse" spreadMethod="reflect"><stop offset="0" stop-color="#1a6dff"/><stop offset="1" stop-color="#c822ff"/></linearGradient><path fill="url(#xGx4oSjgnGTjf1dYgKNaxn)" d="M55,41H25c-1.654,0-3,1.346-3,3v8c0,1.654,1.346,3,3,3h30c1.654,0,3-1.346,3-3v-8 C58,42.346,56.654,41,55,41z M56,52c0,0.552-0.448,1-1,1H25c-0.552,0-1-0.448-1-1v-8c0-0.552,0.448-1,1-1h30c0.552,0,1,0.448,1,1V52 z"/><linearGradient id="xGx4oSjgnGTjf1dYgKNaxo" x1="13" x2="13" y1="9" y2="56.316" gradientUnits="userSpaceOnUse" spreadMethod="reflect"><stop offset="0" stop-color="#1a6dff"/><stop offset="1" stop-color="#c822ff"/></linearGradient><path fill="url(#xGx4oSjgnGTjf1dYgKNaxo)" d="M18,52c0,0.552-0.448,1-1,1H9c-0.552,0-1-0.448-1-1v-8c0-0.552,0.448-1,1-1h6v-2H9 c-1.654,0-3,1.346-3,3v8c0,1.654,1.346,3,3,3h8c1.654,0,3-1.346,3-3v-4h-2V52z"/><linearGradient id="xGx4oSjgnGTjf1dYgKNaxp" x1="33" x2="33" y1="9" y2="56.316" gradientUnits="userSpaceOnUse" spreadMethod="reflect"><stop offset="0" stop-color="#1a6dff"/><stop offset="1" stop-color="#c822ff"/></linearGradient><path fill="url(#xGx4oSjgnGTjf1dYgKNaxp)" d="M26 45H40V47H26z"/><linearGradient id="xGx4oSjgnGTjf1dYgKNaxq" x1="31" x2="31" y1="9" y2="56.316" gradientUnits="userSpaceOnUse" spreadMethod="reflect"><stop offset="0" stop-color="#1a6dff"/><stop offset="1" stop-color="#c822ff"/></linearGradient><path fill="url(#xGx4oSjgnGTjf1dYgKNaxq)" d="M26 49H36V51H26z"/><linearGradient id="xGx4oSjgnGTjf1dYgKNaxr" x1="13" x2="13" y1="9" y2="56.316" gradientUnits="userSpaceOnUse" spreadMethod="reflect"><stop offset="0" stop-color="#1a6dff"/><stop offset="1" stop-color="#c822ff"/></linearGradient><path fill="url(#xGx4oSjgnGTjf1dYgKNaxr)" d="M15.121 44.465L13 46.586 10.879 44.465 9.465 45.879 11.586 48 9.465 50.121 10.879 51.535 13 49.414 15.121 51.535 16.535 50.121 14.414 48 16.535 45.879z"/></svg>