<svg xmlns="http://www.w3.org/2000/svg" viewBox="0 0 64 64"><linearGradient id="5aksFjOnOpHmVL55ZjzCXa" x1="32" x2="32" y1="48.563" y2="54.063" gradientUnits="userSpaceOnUse" spreadMethod="reflect"><stop offset="0" stop-color="#6dc7ff"/><stop offset="1" stop-color="#e6abff"/></linearGradient><path fill="url(#5aksFjOnOpHmVL55ZjzCXa)" d="M15 49H49V53H15z"/><linearGradient id="5aksFjOnOpHmVL55ZjzCXb" x1="32" x2="32" y1="5.5" y2="59.043" gradientUnits="userSpaceOnUse" spreadMethod="reflect"><stop offset="0" stop-color="#1a6dff"/><stop offset="1" stop-color="#c822ff"/></linearGradient><path fill="url(#5aksFjOnOpHmVL55ZjzCXb)" d="M50,10h-4V9c0-1.654-1.346-3-3-3h-2c-1.654,0-3,1.346-3,3v1H26V9c0-1.654-1.346-3-3-3h-2 c-1.654,0-3,1.346-3,3v1h-4c-2.757,0-5,2.243-5,5v38c0,2.757,2.243,5,5,5h36c2.757,0,5-2.243,5-5V15C55,12.243,52.757,10,50,10z M44,14c0,0.552-0.448,1-1,1h-2c-0.552,0-1-0.448-1-1V9c0-0.552,0.448-1,1-1h2c0.552,0,1,0.448,1,1V14z M24,14c0,0.552-0.448,1-1,1 h-2c-0.552,0-1-0.448-1-1V9c0-0.552,0.448-1,1-1h2c0.552,0,1,0.448,1,1V14z M14,12h4v2c0,1.654,1.345,3,3,3h2c1.654,0,3-1.346,3-3 v-2h12v2c0,1.654,1.345,3,3,3h2c1.654,0,3-1.346,3-3v-2h4c1.654,0,3,1.346,3,3v7H11v-7C11,13.346,12.345,12,14,12z M15,49.815 C15,49.928,15.647,50,16,50h32c0.352,0,1-0.072,1-0.184V51c0,0.552-0.449,1-1,1H16c-0.552,0-1-0.448-1-1V49.815z M49,47 c0,0.552-0.449,1-1,1H16c-0.552,0-1-0.448-1-1v-1V24h34v22V47z M50,56H14c-1.654,0-3-1.346-3-3V24h2v22v1v4c0,1.654,1.345,3,3,3h32 c1.654,0,3-1.346,3-3v-4v-1V24h2v29C53,54.654,51.654,56,50,56z"/><linearGradient id="5aksFjOnOpHmVL55ZjzCXc" x1="32" x2="32" y1="5.5" y2="59.043" gradientUnits="userSpaceOnUse" spreadMethod="reflect"><stop offset="0" stop-color="#1a6dff"/><stop offset="1" stop-color="#c822ff"/></linearGradient><path fill="url(#5aksFjOnOpHmVL55ZjzCXc)" d="M29.499,40.646l-6.292-6.292l-1.414,1.414l6.291,6.291c0.378,0.379,0.881,0.588,1.416,0.588 s1.038-0.209,1.415-0.587l11.292-11.292l-1.414-1.414L29.499,40.646z"/></svg>